<svg width="57" height="57" viewBox="0 0 57 57" fill="none" xmlns="http://www.w3.org/2000/svg">
<path d="M40.053 45.554H16.947C13.914 45.554 11.447 43.086 11.447 40.054V16.949C11.447 13.917 13.914 11.449 16.947 11.449H40.053C43.086 11.449 45.553 13.917 45.553 16.949V40.054C45.553 43.086 43.086 45.554 40.053 45.554ZM16.947 14.449C15.569 14.449 14.447 15.57 14.447 16.949V40.054C14.447 41.433 15.569 42.554 16.947 42.554H40.053C41.431 42.554 42.553 41.433 42.553 40.054V16.949C42.553 15.57 41.431 14.449 40.053 14.449H16.947Z" fill="#CD6028"/>
<path d="M28.506 14.4479C27.677 14.4479 27.006 13.7759 27.006 12.9479V7.20288C27.006 6.37488 27.677 5.70288 28.506 5.70288C29.335 5.70288 30.006 6.37488 30.006 7.20288V12.9479C30.006 13.7759 29.335 14.4479 28.506 14.4479Z" fill="#CD6028"/>
<path d="M28.506 8.703C26.107 8.703 24.155 6.751 24.155 4.351C24.155 1.951 26.107 0 28.506 0C30.905 0 32.857 1.952 32.857 4.351C32.857 6.75 30.905 8.703 28.506 8.703ZM28.506 3.001C27.761 3.001 27.155 3.606 27.155 4.352C27.155 5.098 27.761 5.704 28.506 5.704C29.251 5.704 29.857 5.098 29.857 4.352C29.857 3.606 29.251 3.001 28.506 3.001Z" fill="#CD6028"/>
<path d="M12.947 29.9951H7.20203C6.37303 29.9951 5.70203 29.3231 5.70203 28.4951C5.70203 27.6671 6.37303 26.9951 7.20203 26.9951H12.947C13.776 26.9951 14.447 27.6671 14.447 28.4951C14.447 29.3231 13.776 29.9951 12.947 29.9951Z" fill="#CD6028"/>
<path d="M4.351 32.8461C1.952 32.8461 0 30.8941 0 28.4951C0 26.0961 1.952 24.1431 4.351 24.1431C6.75 24.1431 8.702 26.0951 8.702 28.4951C8.702 30.8951 6.75 32.8461 4.351 32.8461ZM4.351 27.1441C3.606 27.1441 3 27.7501 3 28.4961C3 29.2421 3.606 29.8471 4.351 29.8471C5.096 29.8471 5.702 29.2421 5.702 28.4961C5.702 27.7501 5.096 27.1441 4.351 27.1441Z" fill="#CD6028"/>
<path d="M49.798 30.0071H44.053C43.224 30.0071 42.553 29.3351 42.553 28.5071C42.553 27.6791 43.224 27.0071 44.053 27.0071H49.798C50.627 27.0071 51.298 27.6791 51.298 28.5071C51.298 29.3351 50.627 30.0071 49.798 30.0071Z" fill="#CD6028"/>
<path d="M52.649 32.858C50.25 32.858 48.298 30.906 48.298 28.506C48.298 26.106 50.25 24.155 52.649 24.155C55.048 24.155 57 26.107 57 28.506C57 30.905 55.048 32.858 52.649 32.858ZM52.649 27.156C51.904 27.156 51.298 27.761 51.298 28.507C51.298 29.253 51.904 29.859 52.649 29.859C53.394 29.859 54 29.253 54 28.507C54 27.761 53.394 27.156 52.649 27.156Z" fill="#CD6028"/>
<path d="M28.4939 51.299C27.6649 51.299 26.9939 50.627 26.9939 49.799V44.054C26.9939 43.226 27.6649 42.554 28.4939 42.554C29.3229 42.554 29.9939 43.226 29.9939 44.054V49.799C29.9939 50.627 29.3229 51.299 28.4939 51.299Z" fill="#CD6028"/>
<path d="M28.4939 57.0009C26.0949 57.0009 24.1429 55.0488 24.1429 52.6498C24.1429 50.2508 26.0949 48.2979 28.4939 48.2979C30.8929 48.2979 32.8449 50.2498 32.8449 52.6498C32.8449 55.0498 30.8929 57.0009 28.4939 57.0009ZM28.4939 51.2989C27.7489 51.2989 27.1429 51.9049 27.1429 52.6509C27.1429 53.3969 27.7489 54.0019 28.4939 54.0019C29.2389 54.0019 29.8449 53.3969 29.8449 52.6509C29.8449 51.9049 29.2389 51.2989 28.4939 51.2989Z" fill="#CD6028"/>
<path d="M37.59 14.451C36.761 14.451 36.09 13.779 36.09 12.951V4.50098C36.09 3.67298 36.761 3.00098 37.59 3.00098H41.766C42.595 3.00098 43.266 3.67298 43.266 4.50098C43.266 5.32898 42.595 6.00098 41.766 6.00098H39.09V12.951C39.09 13.779 38.419 14.451 37.59 14.451Z" fill="#CD6028"/>
<path d="M52.4999 20.9109H44.0499C43.2209 20.9109 42.5499 20.2389 42.5499 19.4109C42.5499 18.5829 43.2209 17.9109 44.0499 17.9109H50.9999V15.2419C50.9999 14.4139 51.6709 13.7419 52.4999 13.7419C53.3289 13.7419 53.9999 14.4139 53.9999 15.2419V19.4109C53.9999 20.2389 53.3289 20.9109 52.4999 20.9109Z" fill="#CD6028"/>
<path d="M52.4999 43.2671C51.6709 43.2671 50.9999 42.5951 50.9999 41.7671V39.0911H44.0499C43.2209 39.0911 42.5499 38.4191 42.5499 37.5911C42.5499 36.7631 43.2209 36.0911 44.0499 36.0911H52.4999C53.3289 36.0911 53.9999 36.7631 53.9999 37.5911V41.7671C53.9999 42.5951 53.3289 43.2671 52.4999 43.2671Z" fill="#CD6028"/>
<path d="M41.758 54.001H37.59C36.761 54.001 36.09 53.329 36.09 52.501V44.051C36.09 43.223 36.761 42.551 37.59 42.551C38.419 42.551 39.09 43.223 39.09 44.051V51.001H41.758C42.587 51.001 43.258 51.673 43.258 52.501C43.258 53.329 42.587 54.001 41.758 54.001Z" fill="#CD6028"/>
<path d="M19.41 54.001H15.234C14.405 54.001 13.734 53.329 13.734 52.501C13.734 51.673 14.405 51.001 15.234 51.001H17.91V44.051C17.91 43.223 18.581 42.551 19.41 42.551C20.239 42.551 20.91 43.223 20.91 44.051V52.501C20.91 53.329 20.239 54.001 19.41 54.001Z" fill="#CD6028"/>
<path d="M4.5 43.2601C3.671 43.2601 3 42.5881 3 41.7601V37.5911C3 36.7631 3.671 36.0911 4.5 36.0911H12.95C13.779 36.0911 14.45 36.7631 14.45 37.5911C14.45 38.4191 13.779 39.0911 12.95 39.0911H6V41.7601C6 42.5881 5.329 43.2601 4.5 43.2601Z" fill="#CD6028"/>
<path d="M12.95 20.9109H4.5C3.671 20.9109 3 20.2389 3 19.4109V15.2349C3 14.4069 3.671 13.7349 4.5 13.7349C5.329 13.7349 6 14.4069 6 15.2349V17.9109H12.95C13.779 17.9109 14.45 18.5829 14.45 19.4109C14.45 20.2389 13.779 20.9109 12.95 20.9109Z" fill="#CD6028"/>
<path d="M19.4099 14.451C18.5809 14.451 17.9099 13.779 17.9099 12.951V6.00098H15.2419C14.4129 6.00098 13.7419 5.32898 13.7419 4.50098C13.7419 3.67298 14.4129 3.00098 15.2419 3.00098H19.4099C20.2389 3.00098 20.9099 3.67298 20.9099 4.50098V12.951C20.9099 13.779 20.2389 14.451 19.4099 14.451Z" fill="#CD6028"/>
<path d="M29.0257 18.2587C28.7856 18.0904 28.4989 18 28.205 18C27.9111 18 27.6244 18.0904 27.3843 18.2587C25.8418 19.3417 22.7688 21.1682 19.5169 21.2329C19.142 21.2431 18.7862 21.3989 18.5259 21.6667C18.2656 21.9346 18.1217 22.2932 18.1251 22.6653C18.1743 27.4461 19.2062 34.2962 27.5563 38.5643C27.7572 38.6666 27.9797 38.72 28.2055 38.72C28.4313 38.72 28.6538 38.6666 28.8546 38.5643C37.2038 34.2965 38.2363 27.4465 38.2849 22.665C38.2882 22.2928 38.1442 21.9342 37.8838 21.6664C37.6234 21.3986 37.2674 21.2429 36.8925 21.2329C33.6424 21.1682 30.5682 19.3417 29.0257 18.2587ZM33.01 27.0413L28.3077 31.4636C28.0466 31.7091 27.6993 31.8437 27.3397 31.8389C26.9801 31.8341 26.6366 31.6901 26.3823 31.4378L24.0929 29.1638C23.8466 28.9047 23.7117 28.5605 23.7168 28.2044C23.7219 27.8482 23.8667 27.508 24.1204 27.256C24.3741 27.004 24.7167 26.86 25.0756 26.8545C25.4345 26.8491 25.7814 26.9826 26.0427 27.2268L27.384 28.5579L31.1113 25.0526C31.242 24.9243 31.3971 24.8233 31.5676 24.7553C31.7381 24.6873 31.9206 24.6539 32.1043 24.6568C32.288 24.6597 32.4693 24.6991 32.6375 24.7724C32.8057 24.8458 32.9575 24.9518 33.0839 25.0842C33.2103 25.2165 33.3088 25.3726 33.3736 25.5432C33.4384 25.7138 33.4683 25.8956 33.4614 26.0778C33.4545 26.26 33.411 26.4391 33.3335 26.6044C33.256 26.7697 33.146 26.9181 33.01 27.0406V27.0413Z" fill="#3E6EB4"/>
</svg>
